<?xml version="1.0" encoding="utf-8"?>
<!-- Generator: Adobe Illustrator 22.0.0, SVG Export Plug-In . SVG Version: 6.00 Build 0)  -->
<svg version="1.1" id="Layer_1" xmlns="http://www.w3.org/2000/svg" xmlns:xlink="http://www.w3.org/1999/xlink" x="0px" y="0px"
	 viewBox="0 0 92 92" style="enable-background:new 0 0 92 92;" xml:space="preserve">
<style type="text/css">
	.st0{fill:#FEE92A;}
	.st1{fill:none;stroke:#85C441;stroke-width:4;stroke-linecap:round;stroke-linejoin:round;stroke-miterlimit:10;}
	.st2{fill:#FFFFFF;}
	.st3{fill:#EDEDEE;}
	.st4{fill:#FF9216;}
	.st5{fill:#E8590C;}
	.st6{fill:#ED2867;}
	.st7{fill:#FF694F;}
</style>
<path class="st0" d="M90,34.1c0-18.8-17-34-37.9-34c-15.1,0-28.2,7.9-34.3,19.4c6.2-4,13.9-6.4,22.1-6.4c20.9,0,37.9,15.2,37.9,34
	c0,7.2-2.5,13.8-6.7,19.3C79.6,70.6,90,72,90,72c-4.3-4.3-5.7-13-6.3-19.2C87.7,47.5,90,41,90,34.1L90,34.1z M90,34.1"/>
<path class="st1" d="M77.9,47.1c0-18.8-17-34-37.9-34l0,0C19,13.1,2,28.4,2,47.1c0,6.9,2.3,13.4,6.3,18.7c-0.5,6.2-2,14.9-6.3,19.2
	c0,0,12.9-1.8,21.7-7.1c0,0,0,0,0,0c2.7-1.7,5.8-3.6,6.5-4.2c0.5-0.6,1.3-0.8,2-0.4c0.5,0.3,0.7,0.8,0.7,1.3 M39.9,13.1"/>
<path class="st2" d="M51.3,38"/>
<g>
	<path class="st2" d="M11.8,21.5c-0.7-1-0.8-2.3-0.3-3.3c0.2-0.5,0.5-0.9,1-1.2c1.4-1.1,3.5-0.8,4.5,0.6L42.1,51l-5.2,3.9L11.8,21.5
		L11.8,21.5z M11.8,21.5"/>
	<path class="st3" d="M11.8,21.5c-0.7-1-0.8-2.3-0.3-3.3c1.1-0.2,2.3,0.3,3.1,1.3l25.1,33.4l-2.7,2.1L11.8,21.5L11.8,21.5z
		 M11.8,21.5"/>
	<path class="st4" d="M36.6,74c-3-4-3.3-9.1-1.3-13.3c0.9-1.8,2.1-3.4,3.8-4.7l4.2-3.2c1.7-1.3,3.6-2.1,5.6-2.4
		c4.6-0.8,9.4,1,12.4,4.9l12.6,16.8L70,75.2l-7.9-6l3.6,9.3l-2.4,1.8L58,76.1l2.4,6.3l-11.3,8.5L36.6,74L36.6,74z M36.6,74"/>
	<path class="st5" d="M40.2,55.3c5.7-4.3,13.7-3.1,17.9,2.5l12.6,16.8l3.2-2.4L61.3,55.4C57,49.8,49,48.6,43.4,52.9L40.2,55.3
		L40.2,55.3z M40.2,55.3"/>
	<path class="st5" d="M36.2,59.5c0.7-1.5,1.8-2.8,3.2-3.9l3.5-2.6c1.4-1.1,3-1.7,4.6-2c0.2,0.1,0.5,0.1,0.7,0.2
		c2.5,0.8,4.8,2.6,6.6,5c0.3,0.4,0.2,0.9-0.2,1.2c-0.4,0.3-0.9,0.2-1.2-0.2c-3.2-4.3-8.1-6-11-3.8l-2.4,1.8
		c-2.9,2.1-2.6,7.4,0.6,11.6c0.3,0.4,0.2,0.9-0.2,1.2c-0.2,0.1-0.4,0.2-0.7,0.2c-0.2,0-0.4-0.1-0.6-0.3c-1.8-2.4-2.8-5.2-2.9-7.8
		C36.2,59.9,36.2,59.7,36.2,59.5L36.2,59.5z M36.2,59.5"/>
	<path class="st6" d="M33.6,56.7c-0.5-0.6-0.6-1.3-0.5-2.1c0.1-0.7,0.5-1.4,1.1-1.8l7.5-5.6c1.2-0.9,3-0.7,3.9,0.5
		c0.5,0.6,0.6,1.3,0.5,2.1c-0.1,0.7-0.5,1.4-1.1,1.8l-7.5,5.6C36.3,58.2,34.5,58,33.6,56.7L33.6,56.7z M33.6,56.7"/>
	<path class="st7" d="M33.6,56.7c-0.5-0.6-0.6-1.3-0.5-2.1c0.1-0.7,0.5-1.4,1.1-1.8l3.6-2.7c1.2-0.9,3-0.7,3.9,0.5
		c0.5,0.6,0.6,1.3,0.5,2.1c-0.1,0.7-0.5,1.4-1.1,1.8l-3.6,2.7C36.3,58.2,34.5,58,33.6,56.7L33.6,56.7z M33.6,56.7"/>
	<path class="st5" d="M65.7,78.4l-2.4,1.8l-1.3-11L65.7,78.4z M62.1,69.1"/>
	<path class="st5" d="M60.5,82.4l-2.1,1.5L58,76.1L60.5,82.4z M58,76.1"/>
	<path class="st5" d="M52.5,88.4l-1.1-5.7l3.1,4.2L52.5,88.4z M54.5,86.8"/>
</g>
</svg>
